<mxfile host="app.diagrams.net" agent="Mozilla/5.0 (Linux; arm_64; Android 14; SM-A525F) AppleWebKit/537.36 (KHTML, like Gecko) Chrome/132.0.6834.2037 YaApp_Android/25.20.1 YaSearchBrowser/25.20.1 BroPP/1.0 SA/3 Mobile Safari/537.36" version="27.1.0">
  <diagram name="Страница — 1" id="mTgBh7FBWD74x3bIq6MZ">
    <mxGraphModel dx="1093" dy="507" grid="1" gridSize="10" guides="1" tooltips="1" connect="1" arrows="1" fold="1" page="1" pageScale="1" pageWidth="827" pageHeight="1169" math="0" shadow="0">
      <root>
        <mxCell id="0" />
        <mxCell id="1" parent="0" />
        <mxCell id="IhXzRGh0mFt4nuVMHc1o-1" value="" style="shape=umlLifeline;perimeter=lifelinePerimeter;whiteSpace=wrap;html=1;container=1;dropTarget=0;collapsible=0;recursiveResize=0;outlineConnect=0;portConstraint=eastwest;newEdgeStyle={&quot;curved&quot;:0,&quot;rounded&quot;:0};participant=umlActor;" vertex="1" parent="1">
          <mxGeometry x="30" width="20" height="460" as="geometry" />
        </mxCell>
        <mxCell id="IhXzRGh0mFt4nuVMHc1o-2" value="Interface" style="html=1;whiteSpace=wrap;" vertex="1" parent="1">
          <mxGeometry x="200" y="20" width="110" height="50" as="geometry" />
        </mxCell>
        <mxCell id="IhXzRGh0mFt4nuVMHc1o-3" value="AuthService" style="html=1;whiteSpace=wrap;" vertex="1" parent="1">
          <mxGeometry x="400" y="20" width="110" height="50" as="geometry" />
        </mxCell>
        <mxCell id="IhXzRGh0mFt4nuVMHc1o-4" value="database" style="html=1;whiteSpace=wrap;" vertex="1" parent="1">
          <mxGeometry x="610" y="20" width="110" height="50" as="geometry" />
        </mxCell>
        <mxCell id="IhXzRGh0mFt4nuVMHc1o-9" value="" style="endArrow=none;dashed=1;html=1;rounded=0;" edge="1" parent="1" source="IhXzRGh0mFt4nuVMHc1o-13">
          <mxGeometry width="50" height="50" relative="1" as="geometry">
            <mxPoint x="260" y="460" as="sourcePoint" />
            <mxPoint x="260" y="70" as="targetPoint" />
          </mxGeometry>
        </mxCell>
        <mxCell id="IhXzRGh0mFt4nuVMHc1o-10" value="" style="endArrow=none;dashed=1;html=1;rounded=0;" edge="1" parent="1">
          <mxGeometry width="50" height="50" relative="1" as="geometry">
            <mxPoint x="460" y="460" as="sourcePoint" />
            <mxPoint x="460" y="70" as="targetPoint" />
          </mxGeometry>
        </mxCell>
        <mxCell id="IhXzRGh0mFt4nuVMHc1o-11" value="" style="html=1;verticalAlign=middle;endArrow=none;curved=0;rounded=0;entryX=0;entryY=0;entryDx=0;entryDy=5;dashed=1;" edge="1" parent="1" source="IhXzRGh0mFt4nuVMHc1o-19">
          <mxGeometry width="50" height="50" relative="1" as="geometry">
            <mxPoint x="670" y="260" as="sourcePoint" />
            <mxPoint x="670" y="70" as="targetPoint" />
          </mxGeometry>
        </mxCell>
        <mxCell id="IhXzRGh0mFt4nuVMHc1o-12" value="" style="endArrow=none;dashed=1;html=1;rounded=0;" edge="1" parent="1" target="IhXzRGh0mFt4nuVMHc1o-13">
          <mxGeometry width="50" height="50" relative="1" as="geometry">
            <mxPoint x="260" y="460" as="sourcePoint" />
            <mxPoint x="260" y="70" as="targetPoint" />
          </mxGeometry>
        </mxCell>
        <mxCell id="IhXzRGh0mFt4nuVMHc1o-13" value="" style="html=1;points=[[0,0,0,0,5],[0,1,0,0,-5],[1,0,0,0,5],[1,1,0,0,-5]];perimeter=orthogonalPerimeter;outlineConnect=0;targetShapes=umlLifeline;portConstraint=eastwest;newEdgeStyle={&quot;curved&quot;:0,&quot;rounded&quot;:0};" vertex="1" parent="1">
          <mxGeometry x="255" y="130" width="10" height="100" as="geometry" />
        </mxCell>
        <mxCell id="IhXzRGh0mFt4nuVMHc1o-14" value="login entry" style="html=1;verticalAlign=bottom;startArrow=oval;startFill=1;endArrow=block;startSize=8;curved=0;rounded=0;" edge="1" parent="1" target="IhXzRGh0mFt4nuVMHc1o-13">
          <mxGeometry width="60" relative="1" as="geometry">
            <mxPoint x="40" y="160" as="sourcePoint" />
            <mxPoint x="100" y="160" as="targetPoint" />
          </mxGeometry>
        </mxCell>
        <mxCell id="IhXzRGh0mFt4nuVMHc1o-16" value="password entry" style="html=1;verticalAlign=bottom;startArrow=oval;startFill=1;endArrow=block;startSize=8;curved=0;rounded=0;" edge="1" parent="1" target="IhXzRGh0mFt4nuVMHc1o-13">
          <mxGeometry width="60" relative="1" as="geometry">
            <mxPoint x="40" y="200" as="sourcePoint" />
            <mxPoint x="100" y="200" as="targetPoint" />
          </mxGeometry>
        </mxCell>
        <mxCell id="IhXzRGh0mFt4nuVMHc1o-17" value="" style="endArrow=none;dashed=1;html=1;rounded=0;" edge="1" parent="1">
          <mxGeometry width="50" height="50" relative="1" as="geometry">
            <mxPoint x="670" y="460" as="sourcePoint" />
            <mxPoint x="670" y="410" as="targetPoint" />
          </mxGeometry>
        </mxCell>
        <mxCell id="IhXzRGh0mFt4nuVMHc1o-19" value="" style="html=1;points=[[0,0,0,0,5],[0,1,0,0,-5],[1,0,0,0,5],[1,1,0,0,-5]];perimeter=orthogonalPerimeter;outlineConnect=0;targetShapes=umlLifeline;portConstraint=eastwest;newEdgeStyle={&quot;curved&quot;:0,&quot;rounded&quot;:0};" vertex="1" parent="1">
          <mxGeometry x="665" y="220" width="10" height="190" as="geometry" />
        </mxCell>
        <mxCell id="IhXzRGh0mFt4nuVMHc1o-21" value="" style="html=1;verticalAlign=bottom;endArrow=open;dashed=1;endSize=8;curved=0;rounded=0;exitX=0;exitY=1;exitDx=0;exitDy=-5;" edge="1" source="IhXzRGh0mFt4nuVMHc1o-19" parent="1">
          <mxGeometry relative="1" as="geometry">
            <mxPoint x="460" y="405" as="targetPoint" />
          </mxGeometry>
        </mxCell>
        <mxCell id="IhXzRGh0mFt4nuVMHc1o-22" value="check_login()" style="html=1;verticalAlign=bottom;startArrow=oval;startFill=1;endArrow=block;startSize=8;curved=0;rounded=0;" edge="1" parent="1">
          <mxGeometry width="60" relative="1" as="geometry">
            <mxPoint x="460" y="390" as="sourcePoint" />
            <mxPoint x="665" y="390" as="targetPoint" />
          </mxGeometry>
        </mxCell>
        <mxCell id="IhXzRGh0mFt4nuVMHc1o-23" value="hash()" style="html=1;verticalAlign=bottom;startArrow=oval;startFill=1;endArrow=block;startSize=8;curved=0;rounded=0;" edge="1" parent="1">
          <mxGeometry width="60" relative="1" as="geometry">
            <mxPoint x="460" y="314.5" as="sourcePoint" />
            <mxPoint x="665" y="314.5" as="targetPoint" />
          </mxGeometry>
        </mxCell>
        <mxCell id="IhXzRGh0mFt4nuVMHc1o-24" value="" style="endArrow=open;endSize=12;dashed=1;html=1;rounded=0;" edge="1" parent="1">
          <mxGeometry width="160" relative="1" as="geometry">
            <mxPoint x="665" y="330" as="sourcePoint" />
            <mxPoint x="460" y="330" as="targetPoint" />
          </mxGeometry>
        </mxCell>
        <mxCell id="IhXzRGh0mFt4nuVMHc1o-25" value="check_data()" style="html=1;verticalAlign=bottom;startArrow=circle;startFill=1;endArrow=open;startSize=6;endSize=8;curved=0;rounded=0;" edge="1" parent="1" target="IhXzRGh0mFt4nuVMHc1o-19">
          <mxGeometry width="80" relative="1" as="geometry">
            <mxPoint x="250" y="240" as="sourcePoint" />
            <mxPoint x="330" y="240" as="targetPoint" />
          </mxGeometry>
        </mxCell>
        <mxCell id="IhXzRGh0mFt4nuVMHc1o-26" value="return" style="html=1;verticalAlign=bottom;endArrow=open;dashed=1;endSize=8;curved=0;rounded=0;" edge="1" parent="1">
          <mxGeometry relative="1" as="geometry">
            <mxPoint x="460" y="420" as="sourcePoint" />
            <mxPoint x="260" y="420" as="targetPoint" />
          </mxGeometry>
        </mxCell>
        <mxCell id="IhXzRGh0mFt4nuVMHc1o-27" value="return" style="html=1;verticalAlign=bottom;endArrow=open;dashed=1;endSize=8;curved=0;rounded=0;" edge="1" parent="1">
          <mxGeometry relative="1" as="geometry">
            <mxPoint x="260" y="440" as="sourcePoint" />
            <mxPoint x="40" y="440" as="targetPoint" />
          </mxGeometry>
        </mxCell>
      </root>
    </mxGraphModel>
  </diagram>
</mxfile>
